<?xml version="1.0" standalone="no"?>
<!DOCTYPE svg PUBLIC "-//W3C//DTD SVG 20010904//EN"
 "http://www.w3.org/TR/2001/REC-SVG-20010904/DTD/svg10.dtd">
<svg version="1.0" xmlns="http://www.w3.org/2000/svg"
 width="520.000000pt" height="520.000000pt" viewBox="0 0 520.000000 520.000000"
 preserveAspectRatio="xMidYMid meet">
<metadata>
Created by potrace 1.14, written by Peter Selinger 2001-2017
</metadata>
<g transform="translate(0.000000,520.000000) scale(0.100000,-0.100000)"
fill="#000000" stroke="none">
<path d="M0 2600 l0 -2600 2600 0 2600 0 0 2600 0 2600 -2600 0 -2600 0 0
-2600z m3863 1328 c75 -35 156 -113 197 -189 110 -207 85 -621 -64 -1056 l-24
-71 31 -6 c55 -10 259 -26 335 -26 102 0 132 -18 156 -94 4 -11 1 -45 -5 -75
-16 -80 -71 -134 -154 -151 -80 -17 -330 -3 -466 25 -24 6 -30 -2 -103 -137
-258 -475 -574 -811 -864 -919 -71 -26 -106 -33 -190 -37 -117 -5 -170 6 -249
50 -59 33 -139 116 -178 185 -96 173 -167 461 -182 750 l-6 113 -53 -143
c-111 -295 -267 -567 -413 -720 -164 -172 -315 -243 -502 -236 -80 3 -104 9
-161 36 -218 103 -347 386 -420 923 -17 129 -17 781 0 950 25 240 63 535 77
597 39 166 111 220 278 211 83 -5 111 -18 151 -72 30 -39 28 -171 -7 -421 -74
-545 -87 -1095 -32 -1402 30 -173 97 -326 160 -367 66 -43 130 -28 214 50 171
158 358 550 514 1074 57 191 93 343 146 615 60 304 77 374 108 423 39 63 105
96 202 101 90 4 138 -9 176 -49 27 -28 30 -39 33 -108 2 -48 -6 -146 -22 -257
-38 -267 -56 -493 -63 -803 -10 -453 19 -761 86 -906 94 -203 275 -221 464
-46 64 59 154 170 236 293 51 76 211 374 211 393 0 5 -23 25 -51 44 -127 86
-250 262 -297 425 -50 170 -53 401 -8 578 62 242 193 398 391 464 59 20 87 23
180 20 95 -2 118 -6 168 -29z"/>
<path d="M3554 3586 c-100 -44 -158 -244 -133 -463 13 -116 51 -218 110 -291
34 -44 89 -91 89 -77 0 3 18 64 40 136 57 190 84 359 77 484 -6 113 -23 161
-67 199 -35 29 -69 32 -116 12z"/>
</g>
</svg>
